<?xml version="1.0" encoding="utf-8"?>
<!-- Generator: Adobe Illustrator 28.0.0, SVG Export Plug-In . SVG Version: 6.00 Build 0)  -->
<svg version="1.1" id="Layer_1" xmlns="http://www.w3.org/2000/svg" xmlns:xlink="http://www.w3.org/1999/xlink" x="0px" y="0px"
	 viewBox="0 0 500 500" style="enable-background:new 0 0 500 500;" xml:space="preserve">
<style type="text/css">
	.st0{fill:#FFFFFF;}
</style>
<path class="st0" d="M144.94,340.29c8.7-2.2,20.09-4.77,33.55-6.97c9.16-1.5,35.91-5.54,73.29-5.16
	c32.84,0.33,60.78,0.86,94.45,13.16c2.85,1.04,5.17,1.96,6.71,2.58c0,0,3.48,1.61,4.13-2.71c0,0,3.1-18.84,5.55-27.87
	c2.45-9.03,11.48-39.23,16.77-49.68c5.29-10.45,15.48-31.35,17.42-33.81s6.58-8.77,3.87-13.81c-2.71-5.03-3.61-1.68-6.84,1.29
	s-27.55,24.32-43.81,29.94c-16.26,5.61-39.48,10.84-54.19-0.19s-26.9-16.26-37.74-46.45s-14.13-44.9-17.81-33.29
	c-3.68,11.61-13.16,47.42-29.61,63.68s-35.03,28.26-57.1,21.48c-22.06-6.77-30.97-10.65-44.13-21.48s-23.61-25.35-24-12
	s-1.16-5.03,14.13,29.61s24.58,59.03,26.9,74.52c2.32,15.48,9.48,31.16,8.32,14.9c-1.16-16.26-12.77-58.84-20.71-77.03
	s-7.55-18-8.65-19.42s2.9,2.71,16.19,10.77s53.23,24.72,78.58,1.78s32.9-43.45,38.13-59.13c5.23-15.68,5.71-11.56,5.71-11.56
	s13.39,44.34,30.94,60.6s36.13,26.32,60.65,19.87s46.19-23.48,46.19-23.48s-5.94,12.13-11.61,28.65
	c-5.68,16.52-17.68,61.42-17.68,61.42s-24.19-6.39-42-9.87c-17.81-3.48-76.84-7.55-110.13-2.9s-51.77,9.48-51.77,9.48
	s-6.19,1.26-5.9,6.19C143.03,338.32,144.94,340.29,144.94,340.29z"/>
<path class="st0" d="M301.84,358.94c0,0,8.32,1.74,8.71-3.87c0.39-5.61,0-6.97-8.71-8.13s-61.16-7.74-99.68-3.29
	c-38.52,4.45-70.06,7.55-69.1,23.61s12.43,20.92,42.77,22.65c30.58,1.74,76.84,1.74,76.84,1.74s84.58-0.97,90.39-5.42
	s12.39-6.58,10.84-17.61c-1.55-11.03-28.65-18.58-28.65-18.58s-4.19,0.71-3.42,6.45c0.77,5.74,4.32,5.68,12.39,8.32
	c8.06,2.65,11.61,5.81,11.61,5.81s0.19,4.45-10.45,5.23c-10.65,0.77-104.48,4-104.48,4s-46.48-0.58-62.61-2.77
	s-27.87-7.87-27.87-7.87s9.29-6.97,21.16-8.65c11.87-1.68,45.29-6.06,76.13-5.68C268.55,355.26,301.84,358.94,301.84,358.94z"/>
<ellipse class="st0" cx="63.26" cy="193.71" rx="20.77" ry="23.23"/>
<ellipse class="st0" cx="243.97" cy="128.74" rx="21.61" ry="22.52"/>
<ellipse class="st0" cx="422.94" cy="194.55" rx="20.19" ry="23.03"/>
</svg>
