<?xml version="1.0" encoding="utf-8"?>
<!-- Generator: Adobe Illustrator 28.0.0, SVG Export Plug-In . SVG Version: 6.00 Build 0)  -->
<svg version="1.1" id="Layer_1" xmlns="http://www.w3.org/2000/svg" xmlns:xlink="http://www.w3.org/1999/xlink" x="0px" y="0px"
	 viewBox="0 0 500 500" style="enable-background:new 0 0 500 500;" xml:space="preserve">
<style type="text/css">
	.st0{fill:#FFFFFF;}
	.st1{fill:#02B1A4;}
</style>
<ellipse transform="matrix(8.660372e-02 -0.9962 0.9962 8.660372e-02 13.939 588.2288)" cx="327.8" cy="286.5" rx="119.5" ry="84"/>
<ellipse transform="matrix(0.9961 -8.859711e-02 8.859711e-02 0.9961 -24.7149 17.1515)" cx="180.9" cy="287" rx="81.7" ry="119.4"/>
<ellipse transform="matrix(0.9961 -8.859715e-02 8.859715e-02 0.9961 -24.9604 17.0816)" class="st0" cx="179.9" cy="289.7" rx="77.2" ry="113.1"/>
<ellipse transform="matrix(5.260082e-02 -0.9986 0.9986 5.260082e-02 22.8408 599.9366)" class="st0" cx="327.6" cy="287.9" rx="113.7" ry="77.9"/>
<ellipse class="st1" cx="234.7" cy="279.1" rx="15.5" ry="21.7"/>
<ellipse class="st1" cx="274.6" cy="278.6" rx="13.8" ry="19.9"/>
<ellipse class="st0" cx="232.9" cy="272.2" rx="5.6" ry="8.7"/>
<ellipse class="st0" cx="272.5" cy="272.2" rx="5.3" ry="8.7"/>
<path d="M299,94.4c35,11.2,54.4,33.5,58.4,67.2c-19.6-20.3-41.5-35-69-36.8L299,94.4z"/>
<path d="M204.3,106.9l-16.9-33.2c-45.8,12.9-66.4,46.3-70.8,92.7C137.1,138.8,163.4,116.3,204.3,106.9z"/>
<path d="M378.7,197.5c16.4-6.8,28.9-13.3,31.8-19.2l6.6,4.6C412.1,189.3,397.9,193.9,378.7,197.5z"/>
<path d="M382.6,200.4c14.5,1.6,27.8,2,36.5-3v7C409.8,205.7,397,203.8,382.6,200.4z"/>
<path d="M374.4,193.8c16.8-10.1,27.9-19.6,30.8-28.5l-10.9-8C397.4,169.5,389.1,181.6,374.4,193.8z"/>
<path d="M121.3,202.6c-12.4-6.1-21.8-12-24-17.4l-5,4.2C96.2,195.3,106.9,199.4,121.3,202.6z"/>
<path d="M118.3,205.3c-10.9,1.5-21,1.8-27.4-2.7v6.3C97.9,210.1,107.6,208.3,118.3,205.3z"/>
<path d="M124.6,199.3c-12.6-9.1-21-17.7-23.2-25.7l8.2-7.2C107.2,177.4,113.5,188.4,124.6,199.3z"/>
</svg>
