<?xml version="1.0" encoding="utf-8"?>
<!-- Generator: Adobe Illustrator 28.0.0, SVG Export Plug-In . SVG Version: 6.00 Build 0)  -->
<svg version="1.1" id="Layer_1" xmlns="http://www.w3.org/2000/svg" xmlns:xlink="http://www.w3.org/1999/xlink" x="0px" y="0px"
	 viewBox="0 0 500 500" style="enable-background:new 0 0 500 500;" xml:space="preserve">
<style type="text/css">
	.st0{fill:none;}
	.st1{fill:#FFFFFF;}
	.st2{fill:#02B1A4;}
</style>
<path d="M422.2,290.2c-4.7-72.5-49.3-128.6-99.6-125.4c-32.5,2.1-59.4,28.4-73.1,66.2c-11.9-40.6-38.5-69.6-71.5-72.4
	c-49-4.2-93.8,50.8-99.9,122.8s28.6,133.8,77.7,138c38.4,3.3,74.1-29.7,90.8-78.8c15,52.8,52.1,89.4,93,86.7
	C389.9,424.1,426.9,362.7,422.2,290.2z"/>
<g>
	<path class="st0" d="M277.5,284.8c-2.2,0-4.1,1.5-5.1,3.6c3.6,0.1,7,0.1,10.4,0.2C281.7,286.3,279.7,284.8,277.5,284.8z"/>
	<path class="st0" d="M113.5,273.3c1.5,0.3,3.1,0.7,4.6,1c-1-0.7-2.1-1.2-3.3-1.2C114.3,273.1,113.9,273.2,113.5,273.3z"/>
	<path class="st0" d="M254.3,282.7c-36-0.9-54-1.3-71.9-3c-18.6-1.7-35.6-4-50.8-6.6c0.3,1.3,0.5,2.6,0.7,4
		c14.7,2.8,31,5.3,48.7,7.2c10.4,1.1,31.4,1.9,73.5,3.5c1.6,0.1,3.1,0.1,4.6,0.2h0.3c0.3,0,0.5,0,0.8,0c0.3-1.8,0.8-3.5,1.3-5.1
		C259.3,282.9,256.9,282.8,254.3,282.7z"/>
	<path class="st1" d="M131.6,273.2c15.2,2.6,32.2,4.9,50.8,6.6c17.9,1.6,35.9,2.1,71.9,3c2.5,2.7,98.3,0.3,124.4-1.5
		s32.4-3.1,37.3-3.6c-8.9-64.1-49.9-111.7-94.9-108c-36.4,3-64.8,38.6-73.5,86.3c-8.4-51.1-38.9-89.2-76.6-90.7
		c-41.3-1.6-77.4,41.2-86.5,99l0.5-0.4c4.7,1.1,9.9,2.3,15.4,3.5C113.5,269.9,113.5,269.9,131.6,273.2z"/>
	<path class="st1" d="M417.2,288c-0.2-2.8-0.5-5.6-0.9-8.4c-4,2.7-18.2,4.4-31.3,4.9c-24.2,1-46.3,4.2-90.7,4.1
		c0.3,1.7,0.4,3.5,0.4,5.4c0,13.8-7.8,25-17.4,25s-17.4-11.2-17.4-25c0-2.1,0.2-4.1,0.5-6c-0.3,0-0.5,0-0.8,0h-0.3
		c-1.5,0-3.1-0.1-4.6-0.2c-42.1-1.6-63.1-2.4-73.5-3.5c-17.7-1.9-34-4.4-48.7-7.2c0.2,1.5,0.3,3.1,0.3,4.7
		c0,14.6-7.9,26.4-17.7,26.4s-17.7-11.8-17.7-26.4c0-4.3,0.7-8.4,1.9-12c-5.4-1.4-10.5-2.7-15.2-4c-0.9,6.3-1.5,12.7-1.8,19.3
		c-2.7,68.2,32.6,125.1,78.8,126.9c40.6,1.6,76.1-39.6,86-95.8c10,62.2,50.2,107.8,94.4,104.2C388.9,416.8,422.8,357.4,417.2,288z"
		/>
	<path class="st1" d="M277.5,300.3c3.4,0,6.1-3.5,6.1-7.8c0-1.5-0.3-2.8-0.9-4c-3.3,0-6.8-0.1-10.4-0.2c-0.6,1.2-1,2.6-1,4.1
		C271.4,296.8,274.1,300.3,277.5,300.3z"/>
	<path class="st1" d="M108.2,281.3c0,4.5,2.9,8.2,6.6,8.2s6.6-3.7,6.6-8.2c0-3-1.3-5.6-3.2-7c-1.6-0.3-3.1-0.7-4.6-1
		C110.5,274,108.2,277.4,108.2,281.3z"/>
	<path class="st1" d="M115,308.3c9.8,0,17.7-11.8,17.7-26.4c0-1.6-0.1-3.2-0.3-4.7c-5-0.9-9.7-1.9-14.3-2.9c1.9,1.4,3.2,4,3.2,7
		c0,4.5-2.9,8.2-6.6,8.2s-6.6-3.7-6.6-8.2c0-4,2.2-7.3,5.2-8.1c-5-1.1-9.7-2.2-14.2-3.3c-1.2,3.6-1.9,7.7-1.9,12
		C97.4,296.5,105.3,308.3,115,308.3z"/>
	<path class="st2" d="M115,308.3c9.8,0,17.7-11.8,17.7-26.4c0-1.6-0.1-3.2-0.3-4.7c-5-0.9-9.7-1.9-14.3-2.9c1.9,1.4,3.2,4,3.2,7
		c0,4.5-2.9,8.2-6.6,8.2s-6.6-3.7-6.6-8.2c0-4,2.2-7.3,5.2-8.1c-5-1.1-9.7-2.2-14.2-3.3c-1.2,3.6-1.9,7.7-1.9,12
		C97.4,296.5,105.3,308.3,115,308.3z"/>
	<path class="st1" d="M282.7,288.6c0.5,1.2,0.9,2.5,0.9,4c0,4.3-2.7,7.8-6.1,7.8s-6.1-3.5-6.1-7.8c0-1.5,0.4-2.9,1-4.1
		c-3.8-0.1-7.8-0.2-11.9-0.3c-0.3,1.9-0.5,3.9-0.5,6c0,13.8,7.8,25,17.4,25s17.4-11.2,17.4-25c0-1.8-0.1-3.6-0.4-5.4
		C290.6,288.7,286.7,288.6,282.7,288.6z"/>
	<path class="st2" d="M282.7,288.6c0.5,1.2,0.9,2.5,0.9,4c0,4.3-2.7,7.8-6.1,7.8s-6.1-3.5-6.1-7.8c0-1.5,0.4-2.9,1-4.1
		c-3.8-0.1-7.8-0.2-11.9-0.3c-0.3,1.9-0.5,3.9-0.5,6c0,13.8,7.8,25,17.4,25s17.4-11.2,17.4-25c0-1.8-0.1-3.6-0.4-5.4
		C290.6,288.7,286.7,288.6,282.7,288.6z"/>
</g>
<path d="M249.8,231.6c3.4,11.9,6.7,27.9,7,46.8c0.4,25.9-4.8,46.9-9.4,60.9l-2.6-4.4c0.6-5.2,1.9-15.7,1.9-15.7
	c2.5-10.2,4.7-23.8,4-39.8c-0.4-8.9-1.6-16.8-3-23.6L249.8,231.6z"/>
<path d="M98.4,174.1c0,0,20.2-38.6,52.8-41.5c19.6-1.7,28.6,9.8,63,13.3c18.5,1.9,33,0.2,33,0.2c-8.2,4.1-20.5,8.9-35.9,9.9
	c-24.9,1.5-33.4-8.9-54.4-8.6C122.3,147.8,98.4,174.1,98.4,174.1z"/>
<path d="M261.1,173.1c0,0,13.2-9.6,30-26.9c27.6-28.4,26.2-45.3,43.1-50.8c23-7.5,49.5,17.1,49.5,17.1s-19.6-14.1-39-8.3
	c-19.3,5.9-17.6,26.4-44,48.6C282.8,168,261.1,173.1,261.1,173.1z"/>
<path d="M309.4,97.5c0,0,12.2-24.6,33-24.9c18.5-0.3,31,19.2,31,19.2s-13.9-13.4-32-12.4C322.3,80.4,309.4,97.5,309.4,97.5z"/>
</svg>
