<?xml version="1.0" encoding="utf-8"?>
<!-- Generator: Adobe Illustrator 28.0.0, SVG Export Plug-In . SVG Version: 6.00 Build 0)  -->
<svg version="1.1" id="Layer_1" xmlns="http://www.w3.org/2000/svg" xmlns:xlink="http://www.w3.org/1999/xlink" x="0px" y="0px"
	 viewBox="0 0 500 500" style="enable-background:new 0 0 500 500;" xml:space="preserve">
<style type="text/css">
	.st0{fill:#FFFFFF;}
	.st1{fill:#02B1A4;}
</style>
<path d="M174.1,128l4.4,46.5c-34.9-0.3-59.5,16.1-79.8,39.6C98.7,214.1,100.6,141.8,174.1,128z"/>
<path d="M296.7,197.7l8.8,39.6c22.1-16.4,53-19.1,89.9-12.6C395.4,224.8,350.1,174.5,296.7,197.7z"/>
<path d="M49.1,265.6c63.5,3.1,131.5,4.3,203.6,2.5c111.5-2.7,196.1-9.7,196.1-9.7c5.9,29.7,5.7,101.8-85.5,113.4
	c-57.2,2.7-98.2-17.6-109.3-79.8c-10.3,49.5-39.8,77.7-93,79.8c-58.6,2.5-94.2-26.4-96.8-100.6L49.1,269L49.1,265.6L49.1,265.6z"/>
<path class="st0" d="M69.5,272.5l178.5,2.2c-3.8,62.5-35,93-89.2,91.4C94.2,362.8,67.2,329.3,69.5,272.5z"/>
<path class="st0" d="M257.7,274.4l184.4-7.5c5.5,64.1-23.8,96.2-84.2,99.3C303.4,371.2,266.5,346.3,257.7,274.4z"/>
<path class="st1" d="M128.9,273.2c0.7,20,4.6,34.5,16.5,35.9c11.3,0.6,17.6-11,18.9-35.4L128.9,273.2z"/>
<path class="st1" d="M283.2,273.4c2.3,19.8,6.2,36.1,18.4,35.8c12.3,0.4,15.7-16.4,17-37.2L283.2,273.4z"/>
<path class="st0" d="M136.9,273.3c0.9,8.1,2.3,14.4,5.9,14.8c3.9-0.1,6.1-7,8-14.9L136.9,273.3z"/>
<path class="st0" d="M291.1,273c1.4,7.9,3,15.1,7.3,15c4.8,0.3,5.9-7.1,6.5-15.6L291.1,273z"/>
</svg>
