<?xml version="1.0" encoding="utf-8"?>
<!-- Generator: Adobe Illustrator 28.0.0, SVG Export Plug-In . SVG Version: 6.00 Build 0)  -->
<svg version="1.1" id="Layer_1" xmlns="http://www.w3.org/2000/svg" xmlns:xlink="http://www.w3.org/1999/xlink" x="0px" y="0px"
	 viewBox="0 0 500 500" style="enable-background:new 0 0 500 500;" xml:space="preserve">
<style type="text/css">
	.st0{fill:#FFFFFF;}
	.st1{fill:#02B1A4;}
</style>
<path d="M242.5,128.8c0,0,21.7,21.7,74.2,49.5c49.5,26.2,109,34.8,125,38.8l0,0c4.2,18.8,20.9,102.1-29.4,166
	c-11.6,14.7-35.7,45.3-72.5,46.9c-39.2,1.8-99.4-80.2-99.4-80.2c-3.3,7.3-24.2,52.5-63.2,58.5c-57.7,8.8-99.1-76.8-102.8-84.9
	C47.5,266.1,68,191.5,68,191.5c0,0,52.7,4.1,93.9-11.1C210.5,162.5,242.5,128.8,242.5,128.8z"/>
<path class="st0" d="M74.3,201.1c17.4,2,50.3,3.3,88.3-9.9c38.4-13.4,63.4-35.2,75.8-47.6c18.9,14.6,43.4,30.9,73.9,45.1
	c58.7,27.3,123.5,34.2,123.5,34.2c5.7,21.8,9.7,51.4,3.5,84.8c-3.1,16.5-12.2,65.7-53.1,96.6c-10.2,7.7-25.4,19.2-46.1,18.9
	c-26.5-0.5-45.6-20.2-57-32c-31.9-33-45.5-67-45.5-67c-0.3,8.6-2,24.3-11.4,40.6c-2.3,3.9-22.8,38.1-55.7,39.5
	c-25.6,1.1-43.6-18.3-60.8-36.9c-9.9-10.7-45.9-52.4-45-114.4C65.1,230.5,70.2,212.5,74.3,201.1z"/>
<path d="M242.3,143.3c-10.9,30.3-27.3,90.9-8.5,160c5.2,19.1,7.9,28.7,15.2,42.7c0,0-2.7-2.4-9.5-6.6c0,0-18.8-47-20-90.8
	c-1.3-47.5,9.2-85.4,17.5-108.4L242.3,143.3z"/>
<ellipse class="st1" cx="259.4" cy="262.4" rx="26.1" ry="37"/>
<ellipse class="st1" cx="200.2" cy="262.6" rx="16.2" ry="25"/>
<ellipse class="st0" cx="201.3" cy="255" rx="6" ry="8.3"/>
<ellipse class="st0" cx="264" cy="251.5" rx="9.8" ry="13"/>
<path d="M52.2,160c0,0,39.5,4.4,89.6-17.1c46.5-19.9,88.3-61,88.3-61c0,0-27.4,65.1-71.3,87.5C112.5,193,52.2,160,52.2,160z"/>
<path d="M257.8,69.9c0,0,31.8,28.7,98.1,75.1c58.1,40.7,87.9,57.2,87.9,57.2s-70.8,2.2-123.7-38.8
	C274.4,127.9,257.8,69.9,257.8,69.9z"/>
</svg>
